<svg xmlns="http://www.w3.org/2000/svg" viewBox="0 0 96 96" role="img" aria-label="Leña">
  <g fill="none" stroke="#111820" stroke-linecap="round" stroke-linejoin="round">
    <path d="M17 60h44c10 0 18 7 18 15H35c-10 0-18-7-18-15z" stroke-width="5"/>
    <path d="M25 43h39c9 0 16 6 16 14H41c-9 0-16-6-16-14z" stroke-width="5"/>
    <path d="M16 73c7-13 15-23 27-34 8-7 18-14 30-20" stroke-width="5"/>
    <path d="M33 63c4 2 8 5 11 10" stroke-width="4"/>
    <path d="M49 48c4 2 8 5 11 9" stroke-width="4"/>
  </g>
  <g fill="#111820">
    <circle cx="35" cy="74" r="5"/>
    <circle cx="48" cy="74" r="5"/>
    <circle cx="62" cy="74" r="5"/>
    <circle cx="42" cy="57" r="4.5"/>
    <circle cx="55" cy="57" r="4.5"/>
    <circle cx="68" cy="57" r="4.5"/>
  </g>
</svg>
