<svg xmlns="http://www.w3.org/2000/svg" viewBox="0 0 96 96" role="img" aria-label="Olivo">
  <g fill="none" stroke="#111820" stroke-linecap="round" stroke-linejoin="round">
    <path d="M48 76V48" stroke-width="6"/>
    <path d="M48 58c-8 7-15 10-25 10" stroke-width="5"/>
    <path d="M48 55c8 8 16 12 27 12" stroke-width="5"/>
    <path d="M48 47c-6-8-12-13-22-15" stroke-width="5"/>
    <path d="M49 46c8-8 16-13 28-14" stroke-width="5"/>
    <path d="M40 76h17" stroke-width="6"/>
  </g>
  <g fill="#111820">
    <ellipse cx="28" cy="29" rx="9" ry="13" transform="rotate(-42 28 29)"/>
    <ellipse cx="39" cy="20" rx="8" ry="12" transform="rotate(-18 39 20)"/>
    <ellipse cx="56" cy="19" rx="8" ry="12" transform="rotate(20 56 19)"/>
    <ellipse cx="70" cy="29" rx="9" ry="13" transform="rotate(42 70 29)"/>
    <ellipse cx="23" cy="48" rx="8" ry="12" transform="rotate(-72 23 48)"/>
    <ellipse cx="74" cy="49" rx="8" ry="12" transform="rotate(70 74 49)"/>
  </g>
  <g fill="#111820">
    <circle cx="34" cy="54" r="3.4"/>
    <circle cx="62" cy="53" r="3.4"/>
    <circle cx="45" cy="34" r="3.2"/>
    <circle cx="55" cy="36" r="3.2"/>
  </g>
</svg>
