<svg xmlns="http://www.w3.org/2000/svg" viewBox="0 0 512 512" width="512" height="512">
  <g fill="none" stroke="#1e2832" stroke-width="16" stroke-linecap="round">
    <line x1="80" y1="432" x2="80" y2="80"/>
    <line x1="80" y1="432" x2="432" y2="432"/>
  </g>
  <!-- Stacked bars -->
  <g>
    <rect x="120" y="320" width="50" height="112" fill="#7ec8b8" rx="2"/>
    <rect x="120" y="240" width="50" height="80" fill="#5a9e8f" rx="2"/>
    <rect x="120" y="200" width="50" height="40" fill="#1e2832" opacity="0.6" rx="2"/>
  </g>
  <g>
    <rect x="200" y="280" width="50" height="152" fill="#7ec8b8" rx="2"/>
    <rect x="200" y="180" width="50" height="100" fill="#5a9e8f" rx="2"/>
    <rect x="200" y="130" width="50" height="50" fill="#1e2832" opacity="0.6" rx="2"/>
  </g>
  <g>
    <rect x="280" y="250" width="50" height="182" fill="#7ec8b8" rx="2"/>
    <rect x="280" y="140" width="50" height="110" fill="#5a9e8f" rx="2"/>
    <rect x="280" y="100" width="50" height="40" fill="#1e2832" opacity="0.6" rx="2"/>
  </g>
  <g>
    <rect x="360" y="300" width="50" height="132" fill="#7ec8b8" rx="2"/>
    <rect x="360" y="200" width="50" height="100" fill="#5a9e8f" rx="2"/>
    <rect x="360" y="160" width="50" height="40" fill="#1e2832" opacity="0.6" rx="2"/>
  </g>
</svg>